<?xml version="1.0" encoding="utf-8"?>
<!-- Generator: Adobe Illustrator 21.1.0, SVG Export Plug-In . SVG Version: 6.00 Build 0)  -->
<svg version="1.1" id="weather-icon-mostlycloudy" xmlns="http://www.w3.org/2000/svg" xmlns:xlink="http://www.w3.org/1999/xlink"
	 x="0px" y="0px" viewBox="0 0 64 64" style="enable-background:new 0 0 64 64;" xml:space="preserve">
<style type="text/css">
	.st0{fill:#FFFFFF;}
	.st1{fill:#72B8D4;}
</style>
<path class="st0" d="M49.3,57.8H16.9c-5.6,0-10.2-4.6-10.2-10.2c0-4.4,2.8-8.3,6.9-9.6v-0.2c0-5.1,4.2-9.3,9.3-9.3
	c1.2,0,2.4,0.2,3.5,0.8c2.4-3.7,6.6-5.9,11.1-5.9c7.3,0,13.4,6,13.4,13.4c0,0.8-0.1,1.5-0.2,2.3c4.6,0.7,8.2,4.6,8.2,9.4
	C58.7,53.5,54.5,57.8,49.3,57.8z M22.8,31.4c-3.5,0-6.3,2.8-6.3,6.3c0,0.3,0,0.7,0.1,1.1l0.2,1.4l-1.4,0.2c-3.4,0.7-5.8,3.7-5.8,7.1
	c0,4,3.3,7.3,7.3,7.3h32.4c3.6,0,6.6-3,6.6-6.6s-3-6.6-6.6-6.6H49l-2.2,0.1l0.7-2.1c0.3-1,0.5-2.1,0.5-3.2C48,30.6,43.3,26,37.6,26
	c-3.8,0-7.4,2.2-9.2,5.6L27.6,33l-1.3-0.8C25.2,31.6,24,31.4,22.8,31.4z"/>
<path class="st1" d="M57.3,19.8c-3.3,0-6.4-1.5-8-3.9c-1.3-2-1.6-5.1-0.6-7.7l0,0h-0.3c-2.8,0-5.5,1-7.5,3s-3.2,4.7-3.2,7.5
	c0,0.4,0,0.8,0.1,1.2v0.4h0.4c0.5,0,1.1,0.1,1.6,0.2l0.6,0.1L40.3,20c-0.1-0.5-0.1-0.9-0.1-1.3c0-3.4,2.2-6.5,5.4-7.7
	c-0.2,2.7,0.5,5.2,2.2,7.3c1.8,2.3,4.5,3.8,7.7,4.2c-1,1.9-2.3,3.1-3.9,3.8L51,26.5l0.4,0.5c0.3,0.4,0.6,0.8,0.9,1.2l0.2,0.3
	l0.3-0.2c3.2-1.5,5.4-4.5,5.9-8l0.1-0.5H57.3z"/>
</svg>
