<?xml version="1.0" encoding="utf-8"?>
<!-- Generator: Adobe Illustrator 21.1.0, SVG Export Plug-In . SVG Version: 6.00 Build 0)  -->
<svg version="1.1" id="Layer_4" xmlns="http://www.w3.org/2000/svg" xmlns:xlink="http://www.w3.org/1999/xlink" x="0px" y="0px"
	 viewBox="0 0 64 64" style="enable-background:new 0 0 64 64;" xml:space="preserve">
<style type="text/css">
	.st0{fill:#72B8D4;}
</style>
<path class="st0" d="M50.5,35.1C39,35.1,26.3,26,32.1,11.2l0,0c-12.4-0.1-20.9,10-20.9,20.8c0,11.5,9.3,20.9,20.9,20.9
	c10.5,0,19.2-7.6,20.7-17.7C52.8,35.1,51.3,35.1,50.5,35.1z M32.4,49.8c-9.9,0-17.9-8-17.9-17.9c0-8.2,5.8-15.1,13.3-17.3l0,0.1
	c-1.8,12.5,7.1,23,20.7,24.2l0,0C45,45.7,40.2,49.5,32.4,49.8z"/>
</svg>
