<?xml version="1.0" encoding="utf-8"?>
<!-- Generator: Adobe Illustrator 21.1.0, SVG Export Plug-In . SVG Version: 6.00 Build 0)  -->
<svg version="1.1" id="weather-icon-mostlysunny" xmlns="http://www.w3.org/2000/svg" xmlns:xlink="http://www.w3.org/1999/xlink"
	 x="0px" y="0px" viewBox="0 0 64 64" style="enable-background:new 0 0 64 64;" xml:space="preserve">
<style type="text/css">
	.st0{fill:#FFFFFF;}
	.st1{fill:#72B8D4;}
</style>
<path class="st0" d="M40.2,58.2H15.1c-4.6,0-8.4-3.8-8.4-8.4c0-3.5,2.1-6.7,5.4-7.9c0.1-4.1,3.5-7.5,7.8-7.5c0.9,0,1.8,0.1,2.5,0.5
	c2-2.8,5.3-4.5,8.8-4.5c6,0,10.9,4.9,10.9,10.9c0,0.5,0,0.9-0.1,1.4c3.5,0.8,6.3,3.9,6.3,7.8C48.1,54.7,44.6,58.2,40.2,58.2z
	 M19.8,37.7c-2.4,0-4.4,2-4.4,4.4c0,0.3,0,0.5,0.1,0.8l0.3,1.6l-1.6,0.4c-2.4,0.5-4.1,2.6-4.1,5c0,2.8,2.3,5.1,5.1,5.1h25.1
	c2.5,0,4.5-2,4.5-4.5s-2-4.5-4.5-4.5H40l-2.5,0.1l0.8-2.4c0.3-0.8,0.4-1.5,0.4-2.4c0-4.1-3.4-7.5-7.5-7.5c-2.8,0-5.4,1.5-6.7,4
	l-0.9,1.6L22,38.6C21.4,38,20.5,37.7,19.8,37.7z"/>
<path class="st1" d="M58.1,24.7c0,0-1.1,0-1.6,0c-5,0-9.8-2.3-12.3-5.9c-2.1-3.1-2.4-7.4-0.9-11.4l0,0H43c-4.1,0-8.1,1.5-10.9,4.4
	c-2.9,2.9-4.6,6.9-4.6,11.1c0,1.3,0.2,2.7,0.5,4l0.1,0.4l0.4-0.1c0.7-0.2,1.5-0.3,2.3-0.4h0.5l-0.1-0.4c-0.3-1.1-0.5-2.3-0.5-3.4
	c0-5.3,3.6-10.2,8.8-12c-0.5,4.1,0.6,8,3.1,11.1c2.7,3.5,6.9,5.7,11.7,6.2c-2.2,4.2-5,6.4-9,7.1l-0.4,0.1l0.2,0.4
	c0.3,0.7,0.5,1.4,0.6,2.1l0.1,0.4l0.4-0.1c6.5-1.3,11.5-6.4,12.4-12.9l0.1-0.4L58.1,24.7z"/>
</svg>
