<svg id="Logos" xmlns="http://www.w3.org/2000/svg" xmlns:xlink="http://www.w3.org/1999/xlink" width="80" height="80" viewBox="0 0 80 80"><defs><style>.cls-1{fill:#2684ff;}.cls-2{fill:url(#New_Gradient_Swatch_1);}.cls-3{fill:url(#New_Gradient_Swatch_1-2);}</style><linearGradient id="New_Gradient_Swatch_1" x1="57.65" y1="21.92" x2="43.31" y2="36.7" gradientUnits="userSpaceOnUse"><stop offset="0.18" stop-color="#0052cc"/><stop offset="1" stop-color="#2684ff"/></linearGradient><linearGradient id="New_Gradient_Swatch_1-2" x1="41.91" y1="38.81" x2="25.34" y2="54.94" xlink:href="#New_Gradient_Swatch_1"/></defs><title>jira-icon-gradient-blue</title><path class="cls-1" d="M72.12,5.07H38.41A15.21,15.21,0,0,0,53.62,20.28h6.21v6A15.21,15.21,0,0,0,75,41.48V8A2.92,2.92,0,0,0,72.12,5.07Z"/><path class="cls-2" d="M55.44,21.86H21.73A15.21,15.21,0,0,0,36.94,37.07h6.21v6A15.22,15.22,0,0,0,58.36,58.28V24.78A2.92,2.92,0,0,0,55.44,21.86Z"/><path class="cls-3" d="M38.75,38.65H5A15.22,15.22,0,0,0,20.26,53.86h6.21v6A15.21,15.21,0,0,0,41.68,75.07V41.58A2.93,2.93,0,0,0,38.75,38.65Z"/></svg>