<?xml version="1.0" encoding="UTF-8" standalone="no"?>
<!-- Created with Inkscape (http://www.inkscape.org/) -->

<svg
   id="svg7384"
   version="1.1"
   height="16"
   width="16"
   inkscape:version="1.1.2 (0a00cf5339, 2022-02-04, custom)"
   sodipodi:docname="pacman-full.svg"
   xmlns:inkscape="http://www.inkscape.org/namespaces/inkscape"
   xmlns:sodipodi="http://sodipodi.sourceforge.net/DTD/sodipodi-0.dtd"
   xmlns="http://www.w3.org/2000/svg"
   xmlns:svg="http://www.w3.org/2000/svg"
   xmlns:rdf="http://www.w3.org/1999/02/22-rdf-syntax-ns#"
   xmlns:cc="http://creativecommons.org/ns#"
   xmlns:dc="http://purl.org/dc/elements/1.1/">
  <sodipodi:namedview
     pagecolor="#ffffff"
     bordercolor="#666666"
     borderopacity="1"
     objecttolerance="10"
     gridtolerance="10"
     guidetolerance="10"
     inkscape:pageopacity="0"
     inkscape:pageshadow="2"
     inkscape:window-width="1918"
     inkscape:window-height="1060"
     id="namedview15"
     showgrid="true"
     inkscape:zoom="45.254834"
     inkscape:cx="6.2866212"
     inkscape:cy="6.7948542"
     inkscape:window-x="0"
     inkscape:window-y="18"
     inkscape:window-maximized="1"
     inkscape:current-layer="svg7384"
     inkscape:pagecheckerboard="0">
    <inkscape:grid
       type="xygrid"
       id="grid2992" />
  </sodipodi:namedview>
  <title
     id="title9167">Gnome Symbolic Icon Theme</title>
  <metadata
     id="metadata90">
    <rdf:RDF>
      <cc:Work
         rdf:about="">
        <dc:format>image/svg+xml</dc:format>
        <dc:type
           rdf:resource="http://purl.org/dc/dcmitype/StillImage" />
        <dc:title>Gnome Symbolic Icon Theme</dc:title>
      </cc:Work>
    </rdf:RDF>
  </metadata>
  <defs
     id="defs7386" />
  <g
     transform="translate(-60,-518)"
     id="layer9"
     style="display:inline" />
  <g
     transform="translate(-60,-518)"
     id="layer10" />
  <g
     transform="translate(-60,-518)"
     id="layer11" />
  <g
     transform="translate(-60,-518)"
     id="layer13" />
  <g
     transform="translate(-60,-518)"
     id="layer14" />
  <g
     transform="translate(-60,-518)"
     id="layer15" />
  <path
     style="fill:#bebebe;fill-opacity:1;stroke-width:0.00053838;stroke-miterlimit:4;stroke-dasharray:none;stop-color:#000000"
     d="M 7.137907,15 C 4.7704514,14.776062 2.5561882,13.49017 1.2988905,11.6091 0.79747814,10.858926 0.49643804,10.201556 0.28424508,9.393458 0.10319664,8.703968 0.0591173,8.344087 0.05851897,7.5505417 0.05794903,6.7946932 0.09325863,6.5011405 0.27018463,5.7908221 0.91800602,3.1899639 3.1057688,1.0572385 5.8544488,0.347041 6.4964407,0.1811648 6.8897088,0.1296549 7.676287,0.1084186 c 1.3819864,-0.037311 2.508907,0.1977289 3.727246,0.7773864 0.884514,0.4208305 2.018807,1.267639 2.19481,1.6385382 0.0915,0.1928442 0.0646,0.4652894 -0.06391,0.6471215 -0.05214,0.073786 -1.096508,1.0846044 -2.320797,2.2462633 -1.2242884,1.1616587 -2.2228574,2.1228325 -2.2190416,2.1359417 0.00384,0.013109 1.0256906,0.9973153 2.2708336,2.1871253 1.32711,1.268133 2.291056,2.220522 2.329529,2.301599 0.154458,0.325496 0.04807,0.61462 -0.355908,0.967204 C 11.534053,14.497691 9.3522859,15.209459 7.1379079,15 Z M 7.2640101,5.2005925 C 7.3561446,5.153025 7.5089557,5.0301046 7.6035913,4.9274371 8.1096052,4.3784769 7.934244,3.5083912 7.2501327,3.1736868 6.9136982,3.0090851 6.492102,3.0092422 6.1551549,3.1740968 5.2143239,3.6344027 5.3235795,4.9484956 6.3300682,5.2778973 6.522594,5.3409068 7.0819085,5.2946119 7.2640101,5.2005945 Z"
     id="path1342" />
  <path
     id="path5401"
     style="fill:#bebebe;fill-opacity:1;stroke-width:0.0134083;stop-color:#000000"
     d="M 7.9804688,0.12304688 A 7.9527636,7.4228802 0 0 0 0.02734375,7.5449219 7.9527636,7.4228802 0 0 0 7.9804688,14.96875 7.9527636,7.4228802 0 0 0 15.933594,7.5449219 7.9527636,7.4228802 0 0 0 7.9804688,0.12304688 Z M 7.1113281,2.6757812 c 0.1700559,2.455e-4 0.2916155,0.062047 0.3574219,0.1484376 0.028105,0.00325 0.055941,0.00597 0.083984,0.00977 0.059417,0.010654 0.120023,0.018078 0.1777344,0.037109 0.010273,0.00339 0.019438,0.00723 0.029297,0.011719 0.00198,7.727e-4 0.00267,0.00151 0.00391,0.00195 0.041112,0.020851 0.083943,0.040081 0.1230469,0.064453 0.020038,0.012489 0.036875,0.029381 0.052734,0.046875 0.075451,0.083228 0.084982,0.1287079 0.1230469,0.2382812 0.015629,0.062837 0.01248,0.1274133 0.015625,0.1914062 0.00173,0.035224 0.0082,0.070464 0.011719,0.1054688 0.00873,0.081246 0.029737,0.1622443 0.046875,0.2421875 0.019228,0.080299 0.030194,0.1617471 0.035156,0.2441406 0.00366,0.060532 -0.00155,0.025886 0.00391,0.060547 0.00487,0.075836 0.023068,0.1645304 0.017578,0.2402344 C 8.1905024,4.3578147 8.1839475,4.398172 8.1796875,4.4375 8.1492511,4.5887154 8.0802417,4.7282398 8.0117188,4.8652344 7.9433593,5.0079133 7.8568225,5.1386572 7.7578125,5.2617188 7.7060348,5.3244608 7.6485966,5.3816269 7.5878906,5.4355469 7.5003047,5.5145717 7.3901911,5.5622156 7.28125,5.6035156 7.1552183,5.6506336 7.0221317,5.665665 6.8886719,5.671875 6.7940907,5.675436 6.7011959,5.6717012 6.6074219,5.6601562 6.524039,5.6389473 6.4395727,5.6195185 6.3554688,5.6015625 6.2745388,5.5856395 6.1998145,5.5540174 6.1328125,5.5058594 c -0.01689,-0.012141 -0.028992,-0.022961 -0.037109,-0.03125 0.2265217,0.151495 0.2281395,0.040864 0.1835938,-0.1328125 -0.016972,-0.00728 -0.034199,-0.014424 -0.050781,-0.023437 -0.029309,-0.016155 -0.059248,-0.031522 -0.087891,-0.048828 0,0 -0.00195,-0.00195 -0.00195,-0.00195 C 6.0940254,5.302676 6.0460508,5.3274789 6,5.3300781 5.9185606,5.3346731 5.8387315,5.3091011 5.7578125,5.2988281 5.5507906,5.1986069 5.4569476,4.9804356 5.3847656,4.7773438 5.3525276,4.6782488 5.3307345,4.5773916 5.3046875,4.4765625 5.2782495,4.3817563 5.2695206,4.2835969 5.2695312,4.1855469 5.2677593,4.1057527 5.2790621,4.0264427 5.2988281,3.9492188 5.3289931,3.8254231 5.413894,3.7322464 5.5,3.6445312 c 0.017672,-0.018994 0.037888,-0.036717 0.056641,-0.054687 5.431e-4,-0.00136 0.0014,-0.00255 0.00195,-0.00391 0.016267,-0.040196 0.035718,-0.080403 0.054687,-0.1191406 0.013024,-0.022687 0.025574,-0.045945 0.039063,-0.068359 0.022022,-0.036591 0.050384,-0.062475 0.058594,-0.1074219 C 5.7712025,3.1610968 5.8405659,3.04918 5.9628906,2.96875 c 0.031982,-0.016438 0.063195,-0.03541 0.095703,-0.050781 0.060892,-0.028793 0.1309523,-0.039673 0.1933593,-0.064453 0.094596,-0.027193 0.1891083,-0.05078 0.2851563,-0.072266 0.131824,-0.0289 0.264402,-0.058238 0.3964844,-0.085937 0.064228,-0.013469 0.123227,-0.01961 0.1777343,-0.019531 z" />
</svg>
