<?xml version="1.0" encoding="UTF-8" standalone="no"?>
<svg
   width="28"
   height="24"
   viewBox="0 0 42 36"
   fill="none"
   stroke="#eceff4"
   stroke-width="2"
   stroke-linecap="round"
   stroke-linejoin="round"
   class="feather feather-refresh-cw"
   version="1.1"
   id="svg8"
   sodipodi:docname="upgrade.svg"
   inkscape:version="1.1.2 (0a00cf5339, 2022-02-04, custom)"
   xmlns:inkscape="http://www.inkscape.org/namespaces/inkscape"
   xmlns:sodipodi="http://sodipodi.sourceforge.net/DTD/sodipodi-0.dtd"
   xmlns="http://www.w3.org/2000/svg"
   xmlns:svg="http://www.w3.org/2000/svg">
  <defs
     id="defs12" />
  <sodipodi:namedview
     id="namedview10"
     pagecolor="#ffffff"
     bordercolor="#666666"
     borderopacity="1.0"
     inkscape:pageshadow="2"
     inkscape:pageopacity="0.0"
     inkscape:pagecheckerboard="0"
     showgrid="false"
     inkscape:zoom="11.313708"
     inkscape:cx="-18.252194"
     inkscape:cy="17.942835"
     inkscape:window-width="1918"
     inkscape:window-height="1049"
     inkscape:window-x="1920"
     inkscape:window-y="29"
     inkscape:window-maximized="1"
     inkscape:current-layer="svg8"
     width="32px" />
  <g
     id="g6"
     transform="matrix(0.02256226,0,0,0.02256226,-74.040677,-3.6385702)">
    <path
       d="M 985.9,987.9 C 868,918.8 744.1,854.8 609.7,825.1 609.1,757 617.6,682.2 572.2,625.1 548.6,584.7 489.1,566.1 452.8,601 392.8,656.4 382.7,747.9 398.7,824.2 258.9,849.9 135,923.2 10,986.8 118.1,782.1 235.4,582 338,374.3 c 14.5,-30.7 28,-74.8 61.7,-33.3 19.7,13.1 81.4,52 80.9,40.3 -30.1,-32.8 -97,-61.9 -93.9,-106.5 39.7,-87.3 74,-177.9 113.3,-264.8 37,73.6 65,152.3 100.9,227 84.8,181.1 181.2,356.5 273.2,533.9 -30,-11.9 -94.2,-46 -102.1,-36.5 47.8,32.4 99.3,62.2 138.8,104.6 28.5,47.7 55.4,96.8 79.2,147 l -0.1,4.3 z"
       id="path4" />
  </g>
  <path
     style="fill:#ebebeb;fill-opacity:1;stroke-width:0.00090697;stop-color:#000000"
     d="M 31.312365,26.079447 C 28.861561,24.640024 25.824727,23.328726 23.90615,22.881449 l -0.53218,-0.124073 -0.03624,-1.366789 c -0.04024,-1.518424 -0.110163,-1.892166 -0.505753,-2.70207 -0.304112,-0.622641 -0.783511,-1.162183 -1.24743,-1.403918 -0.47477,-0.247395 -1.189056,-0.262174 -1.622533,-0.03356 -0.587363,0.309743 -1.236011,1.258388 -1.562096,2.284554 -0.179979,0.566406 -0.269097,2.18695 -0.154441,2.808324 0.06674,0.361812 0.06511,0.367764 -0.114835,0.406637 -1.844159,0.398494 -3.568922,1.07367 -6.411086,2.509677 -1.237862,0.62543 -2.2506107,1.115467 -2.2505634,1.088974 1.014e-4,-0.05671 1.3524644,-2.561078 3.6416334,-6.74386 1.863027,-3.404118 3.21703,-5.965324 3.823674,-7.232774 0.228097,-0.47657 0.48113,-0.950863 0.5623,-1.053984 0.199381,-0.253331 0.428941,-0.238696 0.747868,0.0477 0.512495,0.460193 1.891004,1.217829 2.043945,1.123363 0.110221,-0.06808 -0.0086,-0.186519 -0.927327,-0.921778 -0.795428,-0.63685 -1.098936,-0.993674 -1.20206,-1.413264 -0.03012,-0.122524 0.05261,-0.3922934 0.278054,-0.9067054 0.176507,-0.4027635 0.664156,-1.5528645 1.083675,-2.5557755 0.419515,-1.002913 0.867067,-2.053323 0.994556,-2.3342497 l 0.231803,-0.5107764 0.230367,0.485958 c 0.126706,0.2672811 0.568211,1.2706121 0.981126,2.2296271 1.351379,3.1385995 2.446902,5.3647779 5.542579,11.2628389 1.016405,1.936522 1.840078,3.528888 1.830372,3.53858 -0.0099,0.01006 -0.408057,-0.150689 -0.885235,-0.356481 -1.580164,-0.681378 -1.786551,-0.587691 -0.538416,0.244415 1.059544,0.706375 1.898027,1.35257 2.226399,1.715834 0.267759,0.296191 1.00605,1.561684 1.587782,2.721591 0.196862,0.392504 0.357911,0.729908 0.357911,0.749783 0,0.07619 -0.125463,0.01754 -0.767653,-0.359787 z"
     id="path1172" />
  <path
     style="fill:#878787;fill-opacity:1;stroke-width:0.000533639;stop-color:#000000"
     d="m 29.330098,16.094503 c -0.590752,-0.159911 -1.033235,-0.581029 -1.221172,-1.162327 -0.107553,-0.332651 -0.07298,-0.892872 0.07486,-1.214081 0.208471,-0.452878 0.51303,-0.735522 1.008575,-0.936008 l 0.230087,-0.09306 3.214625,-0.02096 3.21462,-0.02096 -2.167858,-2.036857 C 32.491483,9.4901306 31.248086,8.3192421 30.920724,8.0084311 29.598854,6.7533981 28.477353,5.9626441 27.051365,5.2801931 23.143087,3.4097679 18.627478,3.4465011 14.747442,5.3803271 13.396741,6.0535121 12.299713,6.8327191 11.222858,7.8838131 9.7539457,9.3175716 8.7188163,10.87449 7.9466622,12.811463 7.8026446,13.172784 7.6253278,13.557269 7.5525237,13.666017 7.3649184,13.946303 7.0002189,14.209533 6.6533878,14.314875 5.310285,14.72293 4.0770564,13.488263 4.4898159,12.148907 4.7864744,11.186127 5.5110691,9.6779666 6.1994067,8.5903731 8.8328447,4.4294471 13.059083,1.5838964 17.908191,0.70679876 c 1.143939,-0.2069187 1.689047,-0.2502233 3.119721,-0.2481617 1.388065,0.0021 1.805151,0.034215 2.955522,0.2276378 2.823964,0.47471094 5.689344,1.76721174 7.950832,3.58640494 0.58105,0.4674073 0.458059,0.3541283 4.012223,3.6951513 1.392989,1.3094665 2.54955,2.3868629 2.570106,2.3942319 0.02223,0.0077 0.042,-1.3885429 0.04857,-3.4481149 l 0.011,-3.4614969 0.131014,-0.276708 c 0.24494,-0.5171085 0.742023,-0.884402 1.32364,-0.9780706 0.658639,-0.1060599 1.39903,0.2539623 1.748542,0.8504537 0.234472,0.4002314 0.226414,0.1643261 0.214584,6.2386623 l -0.01052,5.5815444 -0.152893,0.309451 c -0.186979,0.378336 -0.46005,0.646358 -0.843591,0.828045 l -0.276195,0.130751 -5.58266,0.0077 c -4.71328,0.0066 -5.616214,-0.0012 -5.798137,-0.05049 z"
     id="path4066" />
  <path
     style="fill:#878787;fill-opacity:1;stroke-width:0.000533639;stop-color:#000000"
     d="m 19.899076,35.385093 c -0.0903,-0.0086 -0.376633,-0.03586 -0.636257,-0.06043 -1.160639,-0.10916 -2.644653,-0.4285 -3.797028,-0.817051 C 13.499409,33.844618 11.65667,32.840207 10.080523,31.572311 9.4965009,31.102514 9.5963951,31.194525 6.0692991,27.877153 4.6770606,26.567695 3.5205913,25.490298 3.4993725,25.482941 c -0.023934,-0.0077 -0.042856,1.310817 -0.04977,3.448109 l -0.010804,3.461485 -0.1310536,0.276746 C 2.900133,33.529984 1.8831288,33.897274 1.0066675,33.500358 0.75231493,33.385181 0.38394112,33.049896 0.23786606,32.800651 7.576168e-4,32.39607 0.0092101,32.638965 0.02100209,26.560355 l 0.0105857,-5.579395 0.1307513,-0.275972 C 0.34404727,20.321414 0.61206897,20.048372 0.9904031,19.861389 l 0.3094657,-0.152957 h 5.6463547 c 5.3660685,0 5.6570585,0.0034 5.8618655,0.0751 0.217409,0.07576 0.244778,0.102086 0.180045,0.173241 -0.01943,0.02162 -0.102602,0.163649 -0.184754,0.316117 -0.08211,0.152437 -0.217722,0.401761 -0.301351,0.554166 -0.08361,0.152438 -0.402827,0.73887 -0.709271,1.3033 l -0.557199,1.02623 -2.5353287,0.02096 -2.5353302,0.02096 2.14655,2.016638 c 1.1805955,1.109151 2.4236219,2.279682 2.7622829,2.601194 0.685457,0.650745 1.24527,1.121938 1.821318,1.532985 1.710335,1.220438 3.738637,2.055271 5.84084,2.404031 1.561885,0.259117 3.217235,0.24481 4.812744,-0.04183 3.136552,-0.56321 6.090143,-2.275163 8.171926,-4.736603 0.998887,-1.181063 1.760106,-2.459966 2.357743,-3.961218 0.29991,-0.753296 0.43486,-0.969806 0.756696,-1.213756 0.788772,-0.597922 1.9416,-0.401049 2.48876,0.425011 0.164922,0.249032 0.288147,0.656381 0.288147,0.952931 0,0.366148 -0.229764,1.032894 -0.722368,2.096277 -2.398135,5.176643 -7.168457,8.85827 -12.782732,9.865428 -1.016206,0.182271 -1.628323,0.235372 -2.873434,0.24939 -0.643436,0.0071 -1.243783,0.0057 -1.334083,-0.0027 z"
     id="path4105" />
</svg>
