<?xml version="1.0" encoding="UTF-8" standalone="no"?>
<!-- Created with Inkscape (http://www.inkscape.org/) -->

<svg
   xmlns:dc="http://purl.org/dc/elements/1.1/"
   xmlns:cc="http://creativecommons.org/ns#"
   xmlns:rdf="http://www.w3.org/1999/02/22-rdf-syntax-ns#"
   xmlns:svg="http://www.w3.org/2000/svg"
   xmlns="http://www.w3.org/2000/svg"
   xmlns:sodipodi="http://sodipodi.sourceforge.net/DTD/sodipodi-0.dtd"
   xmlns:inkscape="http://www.inkscape.org/namespaces/inkscape"
   id="svg2"
   sodipodi:docname="exclamation-red.svg"
   viewBox="0 0 135.7934 141.22733"
   sodipodi:version="0.32"
   version="1.0"
   inkscape:version="0.92.2 5c3e80d, 2017-08-06"
   width="135.7934"
   height="141.22733">
  <sodipodi:namedview
     id="base"
     bordercolor="#666666"
     inkscape:pageshadow="2"
     guidetolerance="10.0"
     pagecolor="#ffffff"
     gridtolerance="10.0"
     width="700px"
     inkscape:zoom="1.0132605"
     objecttolerance="10.0"
     borderopacity="1.0"
     inkscape:current-layer="svg2"
     inkscape:cx="337.61753"
     inkscape:cy="154.65577"
     inkscape:window-y="0"
     inkscape:window-x="1920"
     inkscape:window-height="1038"
     height="200px"
     inkscape:pageopacity="0.0"
     inkscape:window-width="1918"
     showgrid="false"
     fit-margin-top="0"
     fit-margin-left="0"
     fit-margin-right="0"
     fit-margin-bottom="0"
     inkscape:window-maximized="1" />
  <defs
     id="defs5">
    <radialGradient
       id="radialGradient2136"
       gradientUnits="userSpaceOnUse"
       cy="191.78999"
       cx="191.85001"
       gradientTransform="matrix(-0.10659,1.7517,-1.2059,-0.073376,459.56,-121.71)"
       r="109.16"
       inkscape:collect="always">
      <stop
         id="stop2211"
         style="stop-color:#ff0000"
         offset="0" />
      <stop
         id="stop2213"
         style="stop-color:#ff2a2a;stop-opacity:0"
         offset="1" />
    </radialGradient>
    <linearGradient
       id="linearGradient2138"
       y2="593.92999"
       gradientUnits="userSpaceOnUse"
       x2="324.76001"
       gradientTransform="matrix(0.55286,0,0,0.55286,-8.6794,-52.478)"
       y1="230.75"
       x1="355.04999"
       inkscape:collect="always">
      <stop
         id="stop3197"
         style="stop-color:#ffffff;stop-opacity:.37441"
         offset="0" />
      <stop
         id="stop3199"
         style="stop-color:#ffffff;stop-opacity:0"
         offset="1" />
    </linearGradient>
  </defs>
  <g
     id="g2194"
     transform="matrix(0.4982,0,0,0.4982,-28.840103,-22.040403)">
    <path
       id="path12034"
       sodipodi:nodetypes="csccccss"
       style="fill:#000000;fill-rule:evenodd;stroke:#000000;stroke-width:1.10570002"
       d="M 211.87,59.029 C 201.84,44.613 177.76,39.968 169.95,50.605 128.97,106.42 60.5,265.985 64.37,266.405 c -2.886,8.34 -9.383,26.05 -3.608,36.54 18.581,21.21 33.441,28.98 61.148,21.36 l 192.02,-49.47 c 18.16,-6.76 19.16,-27.59 11.32,-40.23 -29.82,-48.13 -77.14,-123.49 -113.38,-175.57 z"
       inkscape:connector-curvature="0" />
    <path
       id="path12040"
       sodipodi:nodetypes="ccsccsccsc"
       style="fill:url(#radialGradient2136);fill-rule:evenodd"
       d="m 193.88,80.319 c -37.31,67.261 -64.05,134.53 -92.47,201.8 -2.606,5.2 -3.27,13.81 -0.79,17.27 2.48,3.45 11.54,4.18 19.74,2.45 l 181.81,-43.47 c 6.22,-1.5 12.57,-3.58 14.07,-7.18 1.51,-3.6 -2.22,-9.6 -5.05,-14.4 -30.84,-50.13 -62.52,-101.1 -98.88,-156.75 -3.06,-4.847 -6.74,-7.811 -9.98,-7.658 -3.24,0.153 -6.32,3.717 -8.45,7.937 z"
       inkscape:connector-curvature="0" />
    <g
       id="g3209"
       transform="translate(-2,-2)">
      <path
         id="path3205"
         sodipodi:nodetypes="ccccc"
         style="fill:#800000;fill-rule:evenodd"
         d="m 220.84,118.51 c -8.09,2.99 -18.85,4.21 -32.53,3.48 9.04,31.26 14.02,65.31 15.69,96.57 6.98,0.94 13.01,0 18.12,-2.78 2.31,-31.26 3.84,-64.17 -1.28,-97.27 z"
         inkscape:connector-curvature="0" />
      <path
         id="path3207"
         style="fill:#800000;fill-rule:evenodd"
         d="m 216.89,229.93 c -7.01,-1.13 -13.77,4.33 -15.06,12.15 -1.3,7.83 3.35,15.09 10.37,16.21 7.01,1.13 13.74,-4.3 15.03,-12.13 1.3,-7.82 -3.32,-15.1 -10.34,-16.23 z"
         inkscape:connector-curvature="0" />
    </g>
    <path
       id="path3203"
       sodipodi:nodetypes="ccccc"
       style="fill:#ffffff;fill-rule:evenodd"
       d="m 222.84,120.51 c -8.09,2.99 -18.85,4.21 -32.53,3.48 9.04,31.26 14.02,65.31 15.69,96.57 6.98,0.94 13.01,0 18.12,-2.78 2.31,-31.26 3.84,-64.17 -1.28,-97.27 z"
       inkscape:connector-curvature="0" />
    <path
       id="path12050"
       style="fill:#ffffff;fill-rule:evenodd"
       d="m 218.89,231.93 c -7.01,-1.13 -13.77,4.33 -15.06,12.15 -1.3,7.83 3.35,15.09 10.37,16.21 7.01,1.13 13.74,-4.3 15.03,-12.13 1.3,-7.82 -3.32,-15.1 -10.34,-16.23 z"
       inkscape:connector-curvature="0" />
    <path
       id="path12054"
       sodipodi:nodetypes="ccsccccsc"
       style="fill:url(#linearGradient2138);fill-rule:evenodd"
       d="m 197.14,92.615 c -31.9,61.895 -57.68,123.78 -84.22,185.68 -2.15,4.3 -5.5,11.17 -3.45,14.02 2.05,2.86 3.93,2.19 10.7,0.75 l 57.3,-14.42 c -7.22,-53.26 -3.88,-130.96 55.44,-152.59 L 212.38,92.378 c -2.52,-4.007 -5.57,-6.459 -8.25,-6.332 -2.68,0.127 -5.22,3.074 -6.99,6.564 z"
       inkscape:connector-curvature="0" />
  </g>
  <metadata
     id="metadata19">
    <rdf:RDF>
      <cc:Work>
        <dc:format>image/svg+xml</dc:format>
        <dc:type
           rdf:resource="http://purl.org/dc/dcmitype/StillImage" />
        <cc:license
           rdf:resource="http://creativecommons.org/publicdomain/zero/1.0/" />
        <dc:publisher>
          <cc:Agent
             rdf:about="http://openclipart.org/">
            <dc:title>Openclipart</dc:title>
          </cc:Agent>
        </dc:publisher>
        <dc:title>Exclamation icons</dc:title>
        <dc:date>2006-11-29T15:22:33</dc:date>
        <dc:description>a series of exclamation icons</dc:description>
        <dc:source>https://openclipart.org/detail/2482/exclamation-icons-by-molumen-2482</dc:source>
        <dc:creator>
          <cc:Agent>
            <dc:title>molumen</dc:title>
          </cc:Agent>
        </dc:creator>
        <dc:subject>
          <rdf:Bag>
            <rdf:li>attention</rdf:li>
            <rdf:li>black</rdf:li>
            <rdf:li>exclamation</rdf:li>
            <rdf:li>icon</rdf:li>
            <rdf:li>red</rdf:li>
            <rdf:li>remix</rdf:li>
            <rdf:li>remix problem</rdf:li>
            <rdf:li>series</rdf:li>
            <rdf:li>sign</rdf:li>
            <rdf:li>triangle</rdf:li>
          </rdf:Bag>
        </dc:subject>
      </cc:Work>
      <cc:License
         rdf:about="http://creativecommons.org/publicdomain/zero/1.0/">
        <cc:permits
           rdf:resource="http://creativecommons.org/ns#Reproduction" />
        <cc:permits
           rdf:resource="http://creativecommons.org/ns#Distribution" />
        <cc:permits
           rdf:resource="http://creativecommons.org/ns#DerivativeWorks" />
      </cc:License>
    </rdf:RDF>
  </metadata>
</svg>
