<svg id="Layer_1" enable-background="new 0 0 512 512" height="512" viewBox="0 0 512 512" width="512" xmlns="http://www.w3.org/2000/svg"><path d="m178.55 135.77c-11.53 12.77-18.55 29.68-18.55 48.23-32.644 0-58.973 27.981-55.72 61.65-54.91-11-96.28-59.5-96.28-117.65 0-66.27 53.73-120 120-120h32c-23.71 9.37-40 36.95-40 64 0 33.52 25.75 61.01 58.55 63.77z" fill="#ffdf81"/><path d="m178.55 135.77c-11.53 12.77-18.55 29.68-18.55 48.23-32.644 0-58.973 27.981-55.72 61.65-8.45-1.69-16.58-4.27-24.28-7.65v-11.65c0-30.93 25.07-56 56-56 0-16.41 5.49-31.54 14.75-43.65 8.22 5.01 17.68 8.22 27.8 9.07z" fill="#ffcd76"/><path d="m160 8c-8.47 3.34-16 9.01-22.17 16.16-99.005 4.997-148.56 121.137-86.3 196.32-26.59-22.01-43.53-55.27-43.53-92.48 0-66.27 53.73-120 120-120z" fill="#f9ecb4"/><circle cx="64" cy="200" fill="#ffcd76" r="8"/><circle cx="52" cy="188" fill="#ffcd76" r="4"/><path d="m432 296h-272c-30.93 0-56-25.07-56-56s25.07-56 56-56c0-47.91 45.994-82.413 91.92-69.21 52.411-71.932 165.158-48.807 185.34 37.4 37.31 2.69 66.74 33.82 66.74 71.81 0 39.76-32.24 72-72 72z" fill="#5989b3"/><g fill="#436786"><path d="m417.1 110.89c-46.079-37.029-114.104-28.239-149.18 19.9-46.024-13.231-91.92 21.386-91.92 69.21-45.061 0-70.917 50.224-46.78 86.78-15.2-10.01-25.22-27.22-25.22-46.78 0-30.93 25.07-56 56-56 0-47.91 45.994-82.413 91.92-69.21 40.366-55.401 122.233-57.325 165.18-3.9z"/><circle cx="144" cy="264" r="8"/><circle cx="132" cy="252" r="4"/></g><path d="m443.602 144.838c-25.197-86.926-138.058-109.482-194.836-39.078-25.612-5.462-53.305 1.775-73.198 21.595-12.522-1.889-24.031-7.962-32.716-17.364-29.377-31.803-10.874-82.315 20.089-94.552 8.178-3.231 5.843-15.439-2.941-15.439h-32c-70.58 0-128 57.42-128 128 0 58.899 40.544 110.273 97.191 124.261 5.738 29.443 31.713 51.739 62.809 51.739h88c4.419 0 8-3.582 8-8s-3.581-8-8-8h-88c-26.467 0-48-21.533-48-48s21.533-48 48-48c4.419 0 8-3.581 8-8 0-35.29 28.71-64 64-64 35.739 0 64 29.216 64 64 0 4.419 3.582 8 8 8s8-3.581 8-8c0-31.505-18.765-59.95-46.817-72.79 52.83-57.606 147.007-31.003 164.288 42.804.798 3.41 3.721 5.904 7.214 6.156 33.26 2.397 59.315 30.435 59.315 63.83 0 35.29-28.71 64-64 64h-136c-4.418 0-8 3.582-8 8s3.582 8 8 8h136c44.112 0 80-35.888 80-80 0-39.794-29.603-73.503-68.398-79.162zm-291.249 31.616c-30.202 3.611-53.992 28.345-56.172 58.958-47.007-13.889-80.181-57.57-80.181-107.412 0-61.757 50.243-112 112-112h6.497c-40.491 42.037-23.726 110.163 29.894 125.29-6.57 10.361-10.831 22.324-12.038 35.164z"/><path d="m277.66 301.66c3.113-3.115 3.115-8.203 0-11.32-3.114-3.114-8.203-3.117-11.32 0-3.114 3.114-3.117 8.203 0 11.32 3.115 3.115 8.203 3.117 11.32 0z"/><path d="m157.122 337.854c-3.395-2.828-8.439-2.37-11.268 1.024l-80 96c-4.362 5.236-.567 13.122 6.142 13.122 2.292 0 4.568-.98 6.15-2.878l80-96c2.828-3.395 2.37-8.439-1.024-11.268z"/><path d="m445.121 337.854c-3.393-2.828-8.438-2.371-11.267 1.024l-80 96c-4.37 5.243-.554 13.122 6.142 13.122 2.292 0 4.567-.98 6.149-2.878l80-96c2.83-3.395 2.371-8.439-1.024-11.268z"/><path d="m157.122 401.854c-3.395-2.829-8.439-2.371-11.268 1.024l-80 96c-4.362 5.236-.567 13.122 6.142 13.122 2.292 0 4.568-.98 6.15-2.878l80-96c2.828-3.395 2.37-8.439-1.024-11.268z"/><path d="m445.121 401.854c-3.393-2.828-8.438-2.372-11.267 1.024l-80 96c-4.37 5.243-.554 13.122 6.142 13.122 2.292 0 4.567-.98 6.149-2.878l80-96c2.83-3.395 2.371-8.439-1.024-11.268z"/><path d="m325.657 370.343c-3.125-3.124-8.189-3.124-11.314 0l-29.658 29.657h-20.685v-20.685l29.657-29.658c3.124-3.124 3.124-8.189 0-11.313-3.125-3.124-8.189-3.124-11.314 0l-18.343 18.342v-12.686c0-4.418-3.582-8-8-8-4.419 0-8 3.582-8 8v12.686l-18.343-18.343c-3.124-3.124-8.189-3.124-11.313 0-3.125 3.124-3.125 8.189 0 11.313l29.656 29.658v20.686h-20.686l-29.657-29.657c-3.124-3.124-8.189-3.124-11.313 0-3.125 3.124-3.125 8.189 0 11.313l18.342 18.344h-12.686c-4.419 0-8 3.582-8 8s3.581 8 8 8h12.686l-18.343 18.343c-3.125 3.124-3.125 8.189 0 11.313 3.124 3.124 8.189 3.124 11.313 0l29.658-29.656h20.686v20.686l-29.657 29.657c-3.125 3.124-3.125 8.189 0 11.313 3.124 3.124 8.189 3.124 11.313 0l18.344-18.341v12.685c0 4.418 3.581 8 8 8 4.418 0 8-3.582 8-8v-12.685l18.343 18.342c3.125 3.125 8.189 3.124 11.314 0 3.124-3.124 3.124-8.189 0-11.313l-29.657-29.658v-20.686h20.685l29.657 29.657c1.563 1.562 3.609 2.343 5.657 2.343 7.061 0 10.714-8.6 5.657-13.657l-18.342-18.343h12.686c4.418 0 8-3.582 8-8s-3.582-8-8-8h-12.686l18.344-18.343c3.123-3.124 3.123-8.19-.001-11.314z"/></svg>