<svg id="Layer_1" enable-background="new 0 0 512.035 512.035" height="512" viewBox="0 0 512.035 512.035" width="512" xmlns="http://www.w3.org/2000/svg"><path d="m160.635 282.678c-.399 3.06-.6 6.17-.6 9.34-35.859 0-62.514 33.291-54.64 68.3-55.9-13.72-97.36-64.17-97.36-124.3 0-70.69 57.31-128 128-128h24c-39.92 8.34-72 45.6-72 88 0 43.35 31.34 79.379 72.6 86.66z" fill="#ffdf81"/><path d="m139.325 276.017h-11.29c-35.859 0-62.514 33.291-54.64 68.3l2.75 4.85c6.486 3.176 14.789 7.592 29.25 11.15-7.864-34.964 18.744-68.3 54.64-68.3 0-3.17.2-6.28.6-9.34-7.348-1.311-14.478-3.509-21.31-6.66z" fill="#ffcd76"/><path d="m160.035 108.017c-14.71 3.07-28.36 10.07-39.72 19.82-90.558 22.603-127.09 132.195-68.42 204.64-26.88-23.46-43.86-57.98-43.86-96.46 0-70.69 57.31-128 128-128z" fill="#f9ecb4"/><path d="m184.045 235.508c.27-26.28 21.65-47.49 47.99-47.49-26.51 0-48-21.49-48-48 0 26.51-21.49 48-48 48 26.34 0 47.73 21.22 47.99 47.5z" fill="#ffcd76"/><path d="m432.035 404.017h-272c-30.93 0-56-25.07-56-56s25.07-56 56-56c0-47.91 45.994-82.413 91.92-69.21 52.411-71.932 165.158-48.807 185.34 37.4 37.31 2.69 66.74 33.82 66.74 71.81 0 39.76-32.24 72-72 72z" fill="#5989b3"/><path d="m417.135 218.908c-46.079-37.029-114.104-28.239-149.18 19.9-46.024-13.231-91.92 21.386-91.92 69.21-45.061 0-70.916 50.225-46.779 86.78-15.201-10.01-25.221-27.22-25.221-46.78 0-30.93 25.07-56 56-56 0-47.91 45.994-82.413 91.92-69.21 40.366-55.402 122.233-57.326 165.18-3.9z" fill="#436786"/><path d="m443.637 252.855c-25.196-86.926-138.057-109.482-194.836-39.078-18.043-3.848-37.109-1.421-53.879 7.401 5.928-14.712 20.371-25.161 37.113-25.161 4.418 0 8-3.581 8-8 0-4.418-3.582-8-8-8-22.056 0-40-17.944-40-40 0-4.418-3.582-8-8-8s-8 3.582-8 8c0 22.056-17.944 40-40 40-4.418 0-8 3.582-8 8 0 4.419 3.582 8 8 8 21.631 0 39.429 17.427 39.969 38.971-10.447 10.267-18.101 23.365-21.688 38.046-54.738-15.31-77.633-82.299-39.099-128.676 12.192-14.674 28.69-24.798 46.453-28.509 4.014-.838 6.743-4.575 6.322-8.653-.422-4.078-3.858-7.178-7.958-7.178h-24c-114.113 0-176.619 132.321-106.547 220.53 17.697 22.277 42.194 38.589 69.381 46.311 8.063 26.122 32.432 45.159 61.166 45.159h88c4.418 0 8-3.581 8-8 0-4.418-3.582-8-8-8h-88c-26.468 0-48-21.533-48-48s21.532-48 48-48c4.418 0 8-3.581 8-8 0-35.26 28.681-64 64-64 35.786 0 64 29.266 64 64 0 4.419 3.582 8 8 8s8-3.581 8-8c0-31.505-18.765-59.95-46.817-72.79 52.765-57.536 146.992-31.064 164.288 42.804.798 3.41 3.721 5.904 7.214 6.156 33.261 2.398 59.315 30.436 59.315 63.831 0 35.29-28.71 64-64 64h-136c-4.418 0-8 3.582-8 8 0 4.419 3.582 8 8 8h136c44.112 0 80-35.888 80-80 .001-39.796-29.603-73.504-68.397-79.164zm-278.818-64.816c7.863-4.731 14.479-11.342 19.216-19.202 4.738 7.861 11.352 14.471 19.218 19.203-7.857 4.745-14.475 11.365-19.216 19.229-4.741-7.865-11.358-14.485-19.218-19.23zm-68.755 161.145c-47.653-16.722-80.029-61.699-80.029-113.167 0-61.104 45.906-111.687 105.041-119.072-64.735 47.467-49.382 143.472 22.144 169.322-27.299 7.442-47.684 32.66-47.156 62.917z"/><path d="m272.035 396.017c-4.417 0-8 3.577-8 8 0 4.415 3.575 8 8 8 4.417 0 8-3.578 8-8 0-4.417-3.577-8-8-8z"/><circle cx="144.035" cy="372.017" fill="#436786" r="8"/><circle cx="132.035" cy="360.017" fill="#436786" r="4"/><g fill="#ffcd76"><circle cx="56.035" cy="300.017" r="8"/><circle cx="44.035" cy="288.017" r="4"/></g></svg>