<svg id="Layer_1" enable-background="new 0 0 512 512" height="512" viewBox="0 0 512 512" width="512" xmlns="http://www.w3.org/2000/svg"><circle cx="255.999" cy="256" fill="#ffcd76" r="192"/><circle cx="255.999" cy="256" fill="#ffb562" r="152"/><path d="m256 80c4.418 0 8-3.581 8-8v-64c0-4.418-3.582-8-8-8s-8 3.582-8 8v64c0 4.419 3.582 8 8 8z"/><path d="m256 432c-4.418 0-8 3.582-8 8v64c0 4.418 3.582 8 8 8s8-3.582 8-8v-64c0-4.418-3.582-8-8-8z"/><path d="m504 248h-64.001c-4.418 0-8 3.581-8 8 0 4.418 3.582 8 8 8h64.001c4.418 0 8-3.582 8-8 0-4.419-3.582-8-8-8z"/><path d="m79.999 256c0-4.419-3.582-8-8-8h-63.999c-4.418 0-8 3.581-8 8 0 4.418 3.582 8 8 8h63.999c4.418 0 8-3.582 8-8z"/><path d="m122.342 133.657c3.125 3.125 8.189 3.124 11.314 0 3.124-3.124 3.124-8.189 0-11.313l-56-56c-3.125-3.124-8.189-3.124-11.314 0-3.124 3.124-3.124 8.189 0 11.313z"/><path d="m383.999 136c2.048 0 4.095-.781 5.657-2.343l56-56c3.124-3.124 3.124-8.189 0-11.313-3.125-3.124-8.189-3.124-11.314 0l-56 56c-5.056 5.055-1.405 13.656 5.657 13.656z"/><path d="m389.656 378.343c-3.125-3.124-8.189-3.124-11.314 0-3.124 3.124-3.124 8.189 0 11.313l56 56c1.563 1.562 3.609 2.343 5.657 2.343 7.061 0 10.714-8.6 5.657-13.657z"/><path d="m122.342 378.343-56 56c-3.124 3.124-3.124 8.189 0 11.313 3.125 3.125 8.189 3.124 11.314 0l56-56c3.124-3.124 3.124-8.189 0-11.313-3.125-3.124-8.189-3.124-11.314 0z"/><path d="m255.999 96c-88.225 0-160 71.776-160 160s71.775 160 160 160 160-71.776 160-160-71.775-160-160-160zm0 304c-79.402 0-144-64.598-144-144s64.598-144 144-144 144 64.598 144 144-64.598 144-144 144z"/><path d="m373.767 280.522c-4.252-1.182-8.666 1.307-9.851 5.563-13.416 48.23-57.793 81.915-107.916 81.915-61.757 0-112-50.243-112-112s50.243-112 112-112c50.314 0 94.736 33.847 108.024 82.309 1.167 4.26 5.564 6.765 9.83 5.6 4.261-1.169 6.768-5.57 5.6-9.831-15.187-55.392-65.954-94.078-123.454-94.078-70.579 0-128 57.42-128 128s57.421 128 128 128c57.281 0 107.996-38.5 123.33-93.626 1.185-4.257-1.307-8.668-5.563-9.852z"/><path d="m381.648 250.34c-3.086-3.108-8.188-3.121-11.31 0-3.114 3.114-3.117 8.203 0 11.32 3.128 3.128 8.229 3.103 11.31 0 3.129-3.128 3.13-8.19 0-11.32z"/></svg>