<svg id="Layer_1" enable-background="new 0 0 512 512" height="512" viewBox="0 0 512 512" width="512" xmlns="http://www.w3.org/2000/svg"><path d="m222.66 220.6c-35.35 4.58-62.66 34.81-62.66 71.4-20.92 0-39.15 11.46-48.76 28.46-36.313-10.61-63.24-44.243-63.24-84.46 0-48.586 39.399-88 88-88 43.692 0 79.442 31.706 86.66 72.6z" fill="#ffdf81"/><path d="m205.71 182.3c-35.032-27.064-84.728-23.74-115.93 7.48-31.241 31.222-34.517 80.933-7.48 115.93-21.095-16.244-34.3-41.635-34.3-69.71 0-48.586 39.399-88 88-88 28.054 0 53.457 13.194 69.71 34.3z" fill="#f9ecb4"/><path d="m222.66 220.6c-35.35 4.58-62.66 34.81-62.66 71.4-20.92 0-39.15 11.46-48.76 28.46-18.921-5.528-35.498-17.355-46.99-33.51 9.31 7.96 20.29 13.99 32.33 17.51 9.61-17 27.84-28.46 48.76-28.46 0-36.59 27.31-66.82 62.66-71.4-2.31-13.08-7.51-25.16-14.91-35.56 15.486 13.209 26.014 31.411 29.57 51.56z" fill="#ffcd76"/><path d="m432 404h-272c-30.93 0-56-25.07-56-56s25.07-56 56-56c0-47.91 45.994-82.413 91.92-69.21 52.411-71.932 165.158-48.807 185.34 37.4 37.31 2.69 66.74 33.82 66.74 71.81 0 39.76-32.24 72-72 72z" fill="#add9ff"/><g fill="#d6ecff"><path d="m417.1 218.89c-46.079-37.029-114.104-28.239-149.18 19.9-46.024-13.231-91.92 21.386-91.92 69.21-45.061 0-70.917 50.224-46.78 86.78-15.2-10.01-25.22-27.22-25.22-46.78 0-30.93 25.07-56 56-56 0-47.91 45.994-82.413 91.92-69.21 40.366-55.401 122.233-57.325 165.18-3.9z"/><circle cx="144" cy="372" r="8"/><circle cx="132" cy="360" r="4"/></g><circle cx="88" cy="276" fill="#ffcd76" r="8"/><circle cx="76" cy="264" fill="#ffcd76" r="4"/><path d="m443.602 252.838c-25.196-86.926-138.057-109.482-194.836-39.078-6.722-1.433-13.209-1.932-19.768-1.689-3.59-14.029-10.297-26.969-19.701-38.055l28.361-28.36c3.125-3.124 3.125-8.189 0-11.313-3.124-3.124-8.189-3.124-11.313 0l-28.359 28.357c-15.281-12.971-34.006-20.729-53.986-22.367v-32.333c0-4.419-3.581-8-8-8s-8 3.581-8 8v32.333c-19.981 1.638-38.707 9.397-53.986 22.367l-28.357-28.357c-3.124-3.124-8.189-3.124-11.313 0-3.125 3.124-3.125 8.189 0 11.313l28.356 28.358c-12.971 15.28-20.729 34.006-22.367 53.986h-32.333c-4.418 0-8 3.581-8 8s3.582 8 8 8h32.333c1.638 19.982 9.396 38.708 22.367 53.986l-28.357 28.357c-3.125 3.124-3.125 8.189 0 11.313 3.124 3.124 8.189 3.124 11.313 0l28.365-28.365c7.846 6.638 16.716 11.991 26.219 15.811-16.034 41.708 14.888 86.898 59.76 86.898h88c4.419 0 8-3.582 8-8s-3.581-8-8-8h-88c-26.467 0-48-21.533-48-48s21.533-48 48-48c4.419 0 8-3.582 8-8 0-35.29 28.71-64 64-64 35.786 0 64 29.266 64 64 0 4.418 3.582 8 8 8s8-3.582 8-8c0-31.505-18.765-59.95-46.817-72.79 52.83-57.606 147.007-31.003 164.288 42.804.798 3.41 3.721 5.904 7.214 6.156 33.26 2.397 59.315 30.435 59.315 63.83 0 35.29-28.71 64-64 64h-136c-4.418 0-8 3.582-8 8s3.582 8 8 8h136c44.112 0 80-35.888 80-80 0-39.794-29.603-73.503-68.398-79.162zm-291.249 31.616c-18.303 2.189-34.246 12.143-44.461 26.453-53.943-20.263-69.902-90.047-28.453-131.472 43.546-43.571 117.258-23.281 133.571 34.845-32.607 7.968-57.443 35.974-60.657 70.174z"/><circle cx="272" cy="404" r="8"/></svg>