<svg id="Layer_1" enable-background="new 0 0 512 512" height="512" viewBox="0 0 512 512" width="512" xmlns="http://www.w3.org/2000/svg"><path d="m178.55 135.77c-11.53 12.77-18.55 29.68-18.55 48.23-32.644 0-58.973 27.981-55.72 61.65-54.91-11-96.28-59.5-96.28-117.65 0-66.27 53.73-120 120-120h32c-23.71 9.37-40 36.95-40 64 0 33.52 25.75 61.01 58.55 63.77z" fill="#ffdf81"/><path d="m178.55 135.77c-11.53 12.77-18.55 29.68-18.55 48.23-32.644 0-58.973 27.981-55.72 61.65-8.45-1.69-16.58-4.27-24.28-7.65v-11.65c0-30.93 25.07-56 56-56 0-16.41 5.49-31.54 14.75-43.65 8.22 5.01 17.68 8.22 27.8 9.07z" fill="#ffcd76"/><path d="m160 8c-8.47 3.34-16 9.01-22.17 16.16-99.005 4.997-148.56 121.137-86.3 196.32-26.59-22.01-43.53-55.27-43.53-92.48 0-66.27 53.73-120 120-120z" fill="#f9ecb4"/><circle cx="64" cy="200" fill="#ffcd76" r="8"/><circle cx="52" cy="188" fill="#ffcd76" r="4"/><path d="m432 296h-272c-30.93 0-56-25.07-56-56s25.07-56 56-56c0-47.91 45.994-82.413 91.92-69.21 52.411-71.932 165.158-48.807 185.34 37.4 37.31 2.69 66.74 33.82 66.74 71.81 0 39.76-32.24 72-72 72z" fill="#5989b3"/><g fill="#436786"><path d="m417.1 110.89c-46.079-37.029-114.104-28.239-149.18 19.9-46.024-13.231-91.92 21.386-91.92 69.21-45.061 0-70.917 50.224-46.78 86.78-15.2-10.01-25.22-27.22-25.22-46.78 0-30.93 25.07-56 56-56 0-47.91 45.994-82.413 91.92-69.21 40.366-55.401 122.233-57.325 165.18-3.9z"/><circle cx="144" cy="264" r="8"/><circle cx="132" cy="252" r="4"/></g><path d="m352 376c0-22.056-17.944-40-40-40s-40 17.944-40 40c0 4.418 3.581 8 8 8 4.418 0 8-3.582 8-8 0-13.233 10.767-24 24-24s24 10.767 24 24-10.767 24-24 24h-304c-4.418 0-8 3.582-8 8s3.582 8 8 8h304c22.056 0 40-17.944 40-40z"/><path d="m472 432h-304c-4.419 0-8 3.582-8 8s3.581 8 8 8h304c13.233 0 24 10.767 24 24s-10.767 24-24 24-24-10.767-24-24c0-4.418-3.582-8-8-8-4.419 0-8 3.582-8 8 0 22.056 17.944 40 40 40s40-17.944 40-40-17.944-40-40-40z"/><path d="m392 464h-288c-4.419 0-8 3.582-8 8s3.581 8 8 8h288c4.418 0 8-3.582 8-8s-3.582-8-8-8z"/><path d="m72 464c-4.418 0-8 3.577-8 8 0 4.415 3.575 8 8 8 4.417 0 8-3.578 8-8 0-4.417-3.577-8-8-8z"/><path d="m248 368h-176c-4.419 0-8 3.582-8 8s3.581 8 8 8h176c4.418 0 8-3.582 8-8s-3.582-8-8-8z"/><path d="m34.34 370.34c-3.114 3.115-3.116 8.203 0 11.32 3.115 3.115 8.203 3.117 11.32 0 3.115-3.115 3.117-8.203 0-11.32-3.114-3.114-8.203-3.117-11.32 0z"/><path d="m376 368c-4.419 0-8 3.582-8 8s3.581 8 8 8h64c4.418 0 8-3.582 8-8s-3.582-8-8-8z"/><path d="m466.34 370.34c-3.113 3.113-3.117 8.203 0 11.32 3.115 3.115 8.203 3.117 11.32 0 3.115-3.115 3.117-8.203 0-11.32-3.114-3.114-8.203-3.117-11.32 0z"/><path d="m97.191 252.261c5.738 29.443 31.713 51.739 62.809 51.739h88c4.418 0 8-3.582 8-8s-3.582-8-8-8h-88c-26.467 0-48-21.533-48-48s21.533-48 48-48c4.419 0 8-3.581 8-8 0-42.632 40.994-73.223 81.709-61.521 27.255 7.831 46.291 33.129 46.291 61.521 0 4.419 3.581 8 8 8 4.418 0 8-3.581 8-8 0-31.505-18.765-59.95-46.817-72.79 52.104-56.817 146.738-32.164 164.288 42.804.798 3.41 3.722 5.904 7.214 6.156 33.26 2.397 59.315 30.435 59.315 63.83 0 35.29-28.71 64-64 64h-136c-4.419 0-8 3.582-8 8s3.581 8 8 8h136c44.112 0 80-35.888 80-80 0-39.794-29.604-73.503-68.398-79.162-25.026-86.33-137.742-109.872-194.836-39.078-25.67-5.474-53.344 1.815-73.198 21.595-27.143-4.095-47.568-27.473-47.568-55.355 0-24.373 15.021-48.688 34.94-56.56 8.179-3.232 5.844-15.44-2.94-15.44h-32c-70.58 0-128 57.42-128 128 0 58.899 40.544 110.273 97.191 124.261zm30.809-236.261h6.497c-13.771 14.296-22.497 34.91-22.497 56 0 32.394 21.598 60.603 52.391 69.29-6.569 10.361-10.831 22.324-12.038 35.164-30.202 3.611-53.992 28.345-56.172 58.958-47.007-13.889-80.181-57.57-80.181-107.412 0-61.757 50.243-112 112-112z"/><path d="m266.34 290.34c-3.114 3.114-3.117 8.203 0 11.32 3.115 3.115 8.203 3.117 11.32 0 3.115-3.115 3.117-8.203 0-11.32-3.113-3.114-8.203-3.117-11.32 0z"/></svg>