<svg id="Layer_1" enable-background="new 0 0 512 512" height="512" viewBox="0 0 512 512" width="512" xmlns="http://www.w3.org/2000/svg"><path d="m424 352c0-30.928-25.072-56-56-56s-56 25.072-56 56c0-30.928-25.072-56-56-56s-56 25.072-56 56c0-30.928-25.072-56-56-56s-56 25.072-56 56v-16c0-101.62 66.38-184 168-184s168 82.38 168 184z" fill="#add9ff"/><path d="m424 336v16c0-30.93-25.07-56-56-56s-56 25.07-56 56c0-30.93-25.07-56-56-56s-56 25.07-56 56v-144c0-30.93 25.07-56 56-56 101.62 0 168 82.38 168 184z" fill="#5989b3"/><path d="m122.86 300.13c-20.45 8.34-34.86 28.42-34.86 51.87v-16c0-109.054 75.918-192.805 184-183.3-80.72 7.13-136.28 68.12-149.14 147.43z" fill="#d6ecff"/><path d="m312 208v144c0-30.93-25.07-56-56-56s-56 25.07-56 56v-144c0-30.93 25.07-56 56-56s56 25.07 56 56z" fill="#99d0ff"/><path d="m384.113 200.608c-66.53-75.616-189.628-75.694-256.227 0-30.879 35.096-47.886 83.179-47.886 135.392v16c0 4.418 3.582 8 8 8s8-3.582 8-8c0-26.467 21.532-48 48-48s48 21.533 48 48c0 4.418 3.582 8 8 8s8-3.582 8-8c0-23.741 17.328-43.5 40-47.32v55.32c0 4.418 3.582 8 8 8s8-3.582 8-8v-55.32c22.672 3.821 40 23.579 40 47.32 0 4.418 3.582 8 8 8s8-3.582 8-8c0-26.467 21.532-48 48-48s48 21.533 48 48c0 4.418 3.582 8 8 8s8-3.582 8-8v-16c0-52.213-17.007-100.296-47.887-135.392zm-286.288 107.12c8.546-65.202 47.475-120.975 108.765-140.359-9.111 11.059-14.59 25.217-14.59 40.631v101.724c-24.83-28.159-68.208-29.069-94.175-1.996zm110.175 1.996v-101.724c0-26.467 21.533-48 48-48s48 21.533 48 48v101.724c-25.565-28.992-70.481-28.939-96 0zm112 0v-101.724c0-15.414-5.478-29.572-14.59-40.632 61.337 19.399 100.221 75.171 108.765 140.359-25.986-27.092-69.364-26.14-94.175 1.997z"/><path d="m256 416c-4.418 0-8 3.582-8 8v48c0 13.234-10.767 24-24 24s-24-10.766-24-24c0-4.418-3.582-8-8-8s-8 3.582-8 8c0 22.056 17.944 40 40 40s40-17.944 40-40v-48c0-4.418-3.582-8-8-8z"/><path d="m112 176c4.418 0 8-3.581 8-8v-160c0-4.418-3.582-8-8-8s-8 3.582-8 8v160c0 4.419 3.582 8 8 8z"/><path d="m400 176c4.418 0 8-3.581 8-8v-160c0-4.418-3.582-8-8-8s-8 3.582-8 8v160c0 4.419 3.582 8 8 8z"/><path d="m160 144c4.418 0 8-3.581 8-8v-96c0-4.418-3.582-8-8-8s-8 3.582-8 8v96c0 4.419 3.582 8 8 8z"/><path d="m352 144c4.418 0 8-3.581 8-8v-96c0-4.418-3.582-8-8-8s-8 3.582-8 8v96c0 4.419 3.582 8 8 8z"/><path d="m208 112c4.418 0 8-3.581 8-8v-96c0-4.418-3.582-8-8-8s-8 3.582-8 8v96c0 4.419 3.582 8 8 8z"/><path d="m256 96c4.418 0 8-3.581 8-8v-80c0-4.418-3.582-8-8-8s-8 3.582-8 8v80c0 4.419 3.582 8 8 8z"/><path d="m304 112c4.418 0 8-3.581 8-8v-96c0-4.418-3.582-8-8-8s-8 3.582-8 8v96c0 4.419 3.582 8 8 8z"/><circle cx="256" cy="120" r="8"/><circle cx="256" cy="392" r="8"/></svg>