<svg id="Layer_1" enable-background="new 0 0 512 512" height="512" viewBox="0 0 512 512" width="512" xmlns="http://www.w3.org/2000/svg"><path d="m214.9 114.05c-31.51 7.67-54.9 36.08-54.9 69.95-21.63 0-40.39 12.26-49.71 30.21-40.11-8.19-70.29-43.68-70.29-86.21 0-48.6 39.4-88 88-88 43.85 0 80.21 32.08 86.9 74.05z" fill="#ffdf81"/><path d="m197.71 74.3c-57.028-44.086-141.71-3.868-141.71 69.7 0 20.21 6.82 38.84 18.29 53.7-20.86-16.08-34.29-41.33-34.29-69.7 0-48.6 39.4-88 88-88 28.38 0 53.63 13.44 69.71 34.3z" fill="#f9ecb4"/><g fill="#ffcd76"><path d="m214.9 114.05c-31.51 7.67-54.9 36.08-54.9 69.95-21.63 0-40.39 12.26-49.71 30.21-21.04-4.3-39.35-16.11-52-32.51 10.4 8.04 22.65 13.79 36 16.51 9.32-17.95 28.08-30.21 49.71-30.21 0-33.87 23.39-62.28 54.9-69.95-2.36-14.81-8.41-28.38-17.19-39.75 17.37 13.39 29.59 33.14 33.19 55.75z"/><circle cx="88" cy="176" r="8"/><circle cx="76" cy="164" r="4"/></g><path d="m432 296h-272c-30.93 0-56-25.07-56-56s25.07-56 56-56c0-47.91 45.994-82.413 91.92-69.21 52.411-71.932 165.158-48.807 185.34 37.4 37.31 2.69 66.74 33.82 66.74 71.81 0 39.76-32.24 72-72 72z" fill="#add9ff"/><path d="m417.1 110.89c-46.079-37.029-114.104-28.239-149.18 19.9-46.024-13.231-91.92 21.386-91.92 69.21-45.061 0-70.917 50.224-46.78 86.78-15.2-10.01-25.22-27.22-25.22-46.78 0-30.93 25.07-56 56-56 0-47.91 45.994-82.413 91.92-69.21 40.366-55.401 122.233-57.325 165.18-3.9z" fill="#d6ecff"/><circle cx="144" cy="264" fill="#d6ecff" r="8"/><circle cx="132" cy="252" fill="#d6ecff" r="4"/><path d="m157.122 337.854c-3.396-2.828-8.439-2.37-11.268 1.024l-80 96c-4.362 5.236-.567 13.122 6.142 13.122 2.292 0 4.568-.98 6.15-2.878l80-96c2.828-3.395 2.37-8.439-1.024-11.268z"/><path d="m445.122 337.854c-3.396-2.828-8.438-2.37-11.268 1.024l-80 96c-4.362 5.235-.566 13.122 6.142 13.122 2.292 0 4.568-.98 6.15-2.878l80-96c2.828-3.395 2.37-8.439-1.024-11.268z"/><path d="m157.122 401.854c-3.396-2.829-8.439-2.371-11.268 1.024l-80 96c-4.362 5.236-.567 13.122 6.142 13.122 2.292 0 4.568-.98 6.15-2.878l80-96c2.828-3.395 2.37-8.439-1.024-11.268z"/><path d="m445.122 401.854c-3.396-2.829-8.438-2.371-11.268 1.024l-80 96c-4.362 5.235-.566 13.122 6.142 13.122 2.292 0 4.568-.98 6.15-2.878l80-96c2.828-3.395 2.37-8.439-1.024-11.268z"/><path d="m325.657 370.343c-3.124-3.124-8.189-3.124-11.313 0l-29.658 29.657h-20.686v-20.686l29.657-29.657c3.125-3.124 3.125-8.189 0-11.313-3.124-3.124-8.189-3.124-11.313 0l-18.344 18.342v-12.686c0-4.418-3.582-8-8-8-4.419 0-8 3.582-8 8v12.686l-18.343-18.343c-3.124-3.124-8.189-3.124-11.313 0s-3.124 8.189 0 11.313l29.656 29.658v20.686h-20.687l-29.657-29.657c-3.124-3.124-8.189-3.124-11.313 0s-3.124 8.189 0 11.313l18.343 18.344h-12.686c-4.419 0-8 3.582-8 8s3.581 8 8 8h12.686l-18.343 18.343c-3.124 3.124-3.124 8.189 0 11.313s8.189 3.124 11.313 0l29.657-29.656h20.687v20.686l-29.657 29.657c-3.124 3.124-3.124 8.189 0 11.313s8.189 3.124 11.313 0l18.344-18.341v12.685c0 4.418 3.581 8 8 8 4.418 0 8-3.582 8-8v-12.685l18.343 18.342c3.124 3.124 8.189 3.124 11.313 0 3.125-3.124 3.125-8.189 0-11.313l-29.656-29.658v-20.686h20.686l29.657 29.657c1.562 1.562 3.609 2.343 5.657 2.343 7.063 0 10.711-8.603 5.657-13.657l-18.343-18.343h12.686c4.418 0 8-3.582 8-8s-3.582-8-8-8h-12.686l18.343-18.343c3.124-3.124 3.124-8.19 0-11.314z"/><path d="m443.602 144.838c-25.199-86.926-138.056-109.483-194.836-39.078-8.889-1.896-18.194-2.298-27.612-1.015-3.557-14.252-10.385-27.501-19.869-38.716l20.372-20.373c3.125-3.124 3.125-8.189 0-11.313-3.124-3.124-8.189-3.124-11.313 0l-20.365 20.365c-15.26-12.914-34.152-20.704-53.979-22.363v-24.345c0-4.418-3.582-8-8-8-4.419 0-8 3.582-8 8v24.336c-20.469 1.697-39.133 9.843-53.955 22.396l-20.388-20.389c-3.124-3.124-8.189-3.124-11.313 0-3.125 3.124-3.125 8.189 0 11.313l20.388 20.388c-12.553 14.823-20.699 33.487-22.396 53.956h-24.336c-4.419 0-8 3.581-8 8s3.581 8 8 8h24.344c1.701 20.253 9.803 38.986 22.418 53.925l-20.418 20.419c-3.125 3.124-3.125 8.189 0 11.313 3.124 3.125 8.189 3.124 11.313 0l20.401-20.401c9.603 8.155 20.855 14.477 33.271 18.36-13.908 41.287 16.926 84.384 60.671 84.384h88c4.419 0 8-3.582 8-8s-3.581-8-8-8h-88c-26.467 0-48-21.533-48-48s21.533-48 48-48c4.418 0 8-3.581 8-8 0-35.29 28.71-64 64-64 35.786 0 64 29.266 64 64 0 4.419 3.582 8 8 8s8-3.581 8-8c0-31.505-18.765-59.95-46.817-72.79 52.764-57.536 146.995-31.065 164.288 42.804.798 3.41 3.722 5.904 7.214 6.156 33.26 2.397 59.315 30.435 59.315 63.83 0 35.29-28.71 64-64 64h-136c-4.418 0-8 3.582-8 8s3.582 8 8 8h136c44.112 0 80-35.888 80-80 0-39.794-29.603-73.503-68.398-79.162zm-291.249 31.616c-19.198 2.296-35.8 13.133-45.918 28.581-34.172-9.541-58.435-41.071-58.435-77.035 0-68.375 80.706-104.958 132.165-60.651 12.567 10.821 21.438 25.237 25.434 41.137-28.902 10.133-50.28 36.412-53.246 67.968z"/><path d="m277.66 301.66c3.115-3.114 3.117-8.203 0-11.32-3.116-3.116-8.207-3.114-11.32 0-3.114 3.114-3.117 8.203 0 11.32 3.114 3.115 8.203 3.117 11.32 0z"/></svg>