<svg id="Layer_1" enable-background="new 0 0 512.012 512.012" height="512" viewBox="0 0 512.012 512.012" width="512" xmlns="http://www.w3.org/2000/svg"><path d="m178.556 135.77c-11.53 12.77-18.55 29.68-18.55 48.23-32.644 0-58.973 27.981-55.72 61.65-54.91-11-96.28-59.5-96.28-117.65 0-66.27 53.73-120 120-120h32c-23.71 9.37-40 36.95-40 64 0 33.52 25.75 61.01 58.55 63.77z" fill="#ffdf81"/><path d="m178.556 135.77c-11.53 12.77-18.55 29.68-18.55 48.23-32.644 0-58.973 27.981-55.72 61.65-8.45-1.69-16.58-4.27-24.28-7.65v-11.65c0-30.93 25.07-56 56-56 0-16.41 5.49-31.54 14.75-43.65 8.22 5.01 17.68 8.22 27.8 9.07z" fill="#ffcd76"/><path d="m160.006 8c-8.47 3.34-16 9.01-22.17 16.16-99.005 4.997-148.56 121.137-86.3 196.32-26.59-22.01-43.53-55.27-43.53-92.48 0-66.27 53.73-120 120-120h32z" fill="#f9ecb4"/><path d="m432.006 296h-272c-30.93 0-56-25.07-56-56s25.07-56 56-56c0-47.91 45.994-82.413 91.92-69.21 52.411-71.932 165.158-48.807 185.34 37.4 37.31 2.69 66.74 33.82 66.74 71.81 0 39.76-32.24 72-72 72z" fill="#5989b3"/><path d="m417.106 110.89c-46.084-37.033-114.11-28.233-149.18 19.9-46.024-13.231-91.92 21.386-91.92 69.21-45.061 0-70.917 50.224-46.78 86.78-15.2-10.01-25.22-27.22-25.22-46.78 0-30.93 25.07-56 56-56 0-47.91 45.994-82.413 91.92-69.21 40.366-55.401 122.233-57.324 165.18-3.9z" fill="#436786"/><path d="m296.006 248-112 144h64l-48 112 128-144h-64z" fill="#ffdf81"/><path d="m443.608 144.838c-25.198-86.926-138.056-109.483-194.836-39.078-25.611-5.462-53.305 1.775-73.198 21.595-12.522-1.889-24.031-7.961-32.716-17.363-29.377-31.803-10.874-82.315 20.089-94.552 8.178-3.232 5.843-15.44-2.941-15.44h-32c-70.58 0-128 57.42-128 128 0 58.899 40.544 110.273 97.191 124.261 5.738 29.443 31.713 51.739 62.809 51.739h82.31l-64.624 83.088c-4.081 5.247-.329 12.912 6.315 12.912h51.868l-43.221 100.849c-3.582 8.358 7.409 15.129 13.332 8.466l128-144c4.575-5.147.913-13.315-5.979-13.315h-53.394l13.714-48h143.68c44.112 0 80-35.888 80-80-.001-39.794-29.604-73.503-68.399-79.162zm-427.602-16.838c0-61.757 50.243-112 112-112h6.497c-40.491 42.037-23.727 110.164 29.894 125.29-6.569 10.362-10.831 22.324-12.038 35.165-30.197 3.611-53.983 28.336-56.171 58.942-47.003-13.892-80.182-57.557-80.182-107.397zm294.185 240-83.413 93.839 28.581-66.688c2.259-5.269-1.611-11.151-7.353-11.151h-47.643l76.607-98.495-20.656 72.297c-1.46 5.11 2.385 10.198 7.692 10.198zm121.815-80h-139.108l10.801-37.802c2.407-8.427-8.629-14.023-14.007-7.109l-34.932 44.911h-94.754c-25.873 0-46.683-20.472-47.939-45.58-1.373-27.51 20.63-50.42 47.939-50.42 4.418 0 8-3.581 8-8 0-35.29 28.71-64 64-64 35.776 0 64 29.257 64 64 0 4.419 3.581 8 8 8 4.418 0 8-3.581 8-8 0-31.505-18.765-59.95-46.817-72.79 52.766-57.537 146.993-31.076 164.288 42.804.798 3.41 3.722 5.904 7.214 6.156 33.261 2.398 59.315 30.436 59.315 63.831 0 35.289-28.71 63.999-64 63.999z"/><path d="m157.128 321.854c-3.396-2.829-8.439-2.37-11.268 1.024l-80 96c-4.369 5.245-.553 13.122 6.142 13.122 2.292 0 4.568-.98 6.15-2.878l80-96c2.828-3.395 2.37-8.439-1.024-11.268z"/><path d="m445.128 321.854c-3.396-2.829-8.439-2.37-11.268 1.024l-80 96c-4.369 5.244-.553 13.122 6.142 13.122 2.292 0 4.568-.98 6.15-2.878l80-96c2.828-3.395 2.37-8.439-1.024-11.268z"/><path d="m157.128 385.854c-3.396-2.828-8.439-2.37-11.268 1.024l-80 96c-4.369 5.245-.553 13.122 6.142 13.122 2.292 0 4.568-.98 6.15-2.878l80-96c2.828-3.395 2.37-8.439-1.024-11.268z"/><path d="m445.128 385.854c-3.396-2.828-8.439-2.37-11.268 1.024l-80 96c-4.369 5.244-.553 13.122 6.142 13.122 2.292 0 4.568-.98 6.15-2.878l80-96c2.828-3.395 2.37-8.439-1.024-11.268z"/><circle cx="64.006" cy="200" fill="#ffcd76" r="8"/><circle cx="52.006" cy="188" fill="#ffcd76" r="4"/><g fill="#436786"><circle cx="144.006" cy="264" r="8"/><circle cx="132.006" cy="252" r="4"/></g></svg>