<svg id="Layer_1" enable-background="new 0 0 512.012 512.012" height="512" viewBox="0 0 512.012 512.012" width="512" xmlns="http://www.w3.org/2000/svg"><path d="m214.906 114.05c-31.51 7.67-54.9 36.08-54.9 69.95-21.63 0-40.39 12.26-49.71 30.21-40.11-8.19-70.29-43.68-70.29-86.21 0-48.6 39.4-88 88-88 43.85 0 80.21 32.08 86.9 74.05z" fill="#ffdf81"/><path d="m197.716 74.3c-57.028-44.086-141.71-3.868-141.71 69.7 0 20.21 6.82 38.84 18.29 53.7-20.86-16.08-34.29-41.33-34.29-69.7 0-48.6 39.4-88 88-88 28.38 0 53.63 13.44 69.71 34.3z" fill="#f9ecb4"/><path d="m214.906 114.05c-31.51 7.67-54.9 36.08-54.9 69.95-21.63 0-40.39 12.26-49.71 30.21-21.04-4.3-39.35-16.11-52-32.51 10.4 8.04 22.65 13.79 36 16.51 9.32-17.95 28.08-30.21 49.71-30.21 0-33.87 23.39-62.28 54.9-69.95-2.36-14.81-8.41-28.38-17.19-39.75 17.37 13.39 29.59 33.14 33.19 55.75z" fill="#ffcd76"/><path d="m432.006 296h-272c-30.93 0-56-25.07-56-56s25.07-56 56-56c0-47.91 45.994-82.413 91.92-69.21 52.411-71.932 165.158-48.807 185.34 37.4 37.31 2.69 66.74 33.82 66.74 71.81 0 39.76-32.24 72-72 72z" fill="#add9ff"/><path d="m417.106 110.89c-46.084-37.033-114.11-28.233-149.18 19.9-46.024-13.231-91.92 21.386-91.92 69.21-45.061 0-70.917 50.224-46.78 86.78-15.2-10.01-25.22-27.22-25.22-46.78 0-30.93 25.07-56 56-56 0-47.91 45.994-82.413 91.92-69.21 40.366-55.401 122.233-57.324 165.18-3.9z" fill="#d6ecff"/><path d="m296.006 248-112 144h64l-48 112 128-144h-64z" fill="#ffdf81"/><path d="m443.608 144.838c-25.199-86.926-138.056-109.483-194.836-39.078-8.889-1.896-18.194-2.298-27.612-1.015-3.557-14.252-10.385-27.501-19.869-38.716l20.372-20.373c3.125-3.124 3.125-8.189 0-11.313-3.124-3.124-8.189-3.124-11.313 0l-20.365 20.365c-15.259-12.914-34.151-20.705-53.978-22.363v-24.345c0-4.418-3.582-8-8-8-4.419 0-8 3.582-8 8v24.336c-20.469 1.697-39.133 9.843-53.955 22.396l-20.389-20.389c-3.124-3.124-8.189-3.124-11.313 0-3.125 3.124-3.125 8.189 0 11.313l20.388 20.388c-12.553 14.823-20.699 33.487-22.396 53.956h-24.336c-4.419 0-8 3.581-8 8s3.581 8 8 8h24.344c1.701 20.253 9.803 38.986 22.418 53.925l-20.418 20.419c-3.125 3.124-3.125 8.189 0 11.313 3.124 3.125 8.189 3.124 11.313 0l20.401-20.401c9.603 8.155 20.855 14.477 33.271 18.36-13.908 41.287 16.926 84.384 60.671 84.384h82.31l-64.625 83.088c-4.081 5.247-.329 12.912 6.315 12.912h51.868l-43.221 100.849c-3.582 8.358 7.409 15.129 13.332 8.466l128-144c4.575-5.147.913-13.315-5.979-13.315h-53.394l13.714-48h143.68c44.112 0 80-35.888 80-80 0-39.794-29.603-73.503-68.398-79.162zm-395.602-16.838c0-68.375 80.706-104.958 132.165-60.651 12.567 10.821 21.438 25.237 25.434 41.137-28.902 10.134-50.28 36.412-53.246 67.969-19.198 2.296-35.8 13.133-45.918 28.581-34.172-9.542-58.435-41.072-58.435-77.036zm262.185 240-83.413 93.839 28.581-66.688c2.259-5.269-1.611-11.151-7.353-11.151h-47.643l76.607-98.495-20.656 72.297c-1.46 5.111 2.386 10.198 7.692 10.198zm121.815-80h-139.108l10.801-37.802c2.406-8.425-8.627-14.024-14.007-7.109l-34.932 44.911h-94.754c-26.467 0-48-21.533-48-48s21.533-48 48-48c4.418 0 8-3.581 8-8 0-35.29 28.71-64 64-64 35.776 0 64 29.257 64 64 0 4.419 3.581 8 8 8 4.418 0 8-3.581 8-8 0-31.505-18.765-59.95-46.817-72.79 52.766-57.537 146.993-31.076 164.288 42.804.798 3.41 3.722 5.904 7.214 6.156 33.261 2.398 59.315 30.436 59.315 63.831 0 35.289-28.71 63.999-64 63.999z"/><path d="m157.128 321.854c-3.396-2.829-8.438-2.37-11.268 1.024l-80 96c-4.369 5.244-.553 13.122 6.142 13.122 2.292 0 4.568-.98 6.15-2.878l80-96c2.828-3.395 2.37-8.439-1.024-11.268z"/><path d="m445.128 321.854c-3.395-2.829-8.438-2.37-11.268 1.024l-80 96c-4.369 5.244-.553 13.122 6.142 13.122 2.292 0 4.568-.98 6.15-2.878l80-96c2.828-3.395 2.37-8.439-1.024-11.268z"/><path d="m157.128 385.854c-3.396-2.828-8.438-2.37-11.268 1.024l-80 96c-4.369 5.244-.553 13.122 6.142 13.122 2.292 0 4.568-.98 6.15-2.878l80-96c2.828-3.395 2.37-8.439-1.024-11.268z"/><path d="m445.128 385.854c-3.395-2.828-8.438-2.37-11.268 1.024l-80 96c-4.369 5.244-.553 13.122 6.142 13.122 2.292 0 4.568-.98 6.15-2.878l80-96c2.828-3.395 2.37-8.439-1.024-11.268z"/><circle cx="144.006" cy="264" fill="#d6ecff" r="8"/><circle cx="132.006" cy="252" fill="#d6ecff" r="4"/><g fill="#ffcd76"><circle cx="76.006" cy="164" r="4"/><circle cx="88.006" cy="176" r="8"/></g></svg>